<?xml version="1.0" standalone="no"?>
<!DOCTYPE svg PUBLIC "-//W3C//DTD SVG 20010904//EN"
 "http://www.w3.org/TR/2001/REC-SVG-20010904/DTD/svg10.dtd">
<svg version="1.0" xmlns="http://www.w3.org/2000/svg"
 width="1024.000000pt" height="1024.000000pt" viewBox="0 0 1024.000000 1024.000000"
 preserveAspectRatio="xMidYMid meet">
<metadata>
Created by potrace 1.11, written by Peter Selinger 2001-2013
</metadata>
<g transform="translate(0.000000,1024.000000) scale(0.100000,-0.100000)"
fill="#000000" stroke="none">
<path d="M2050 8223 c-300 -30 -509 -112 -735 -288 -313 -245 -498 -581 -535
-970 -14 -149 -14 -3517 0 -3675 29 -326 150 -592 382 -836 206 -217 462 -357
751 -411 84 -16 242 -18 1897 -21 1261 -2 1838 0 1915 8 339 34 601 158 844
401 219 219 352 477 396 769 11 72 15 206 15 560 l0 465 998 -997 c1106 -1106
1041 -1048 1174 -1048 128 0 242 67 289 172 l24 53 0 2720 0 2720 -24 52 c-26
58 -77 110 -143 145 -36 19 -58 23 -138 23 -80 0 -102 -4 -141 -24 -33 -17
-323 -300 -1035 -1012 -544 -544 -992 -989 -996 -989 -5 0 -8 208 -8 463 0
358 -3 482 -15 552 -47 290 -177 545 -386 755 -242 243 -514 377 -838 409 -95
10 -3596 14 -3691 4z"/>
</g>
</svg>
